<svg width="25" height="25" viewBox="0 0 25 25" fill="none" xmlns="http://www.w3.org/2000/svg">
<g clip-path="url(#clip0)">
<path d="M15.5089 2.4896L16.6041 0.664193C16.7286 0.456302 16.6615 0.187009 16.4536 0.0624495C16.2453 -0.0625483 15.9765 0.00455577 15.8519 0.212885L14.6962 2.13917C14.0081 1.89443 13.2712 1.75409 12.5002 1.75409C11.7292 1.75409 10.9923 1.89443 10.3042 2.13917L9.14851 0.212885C9.02395 0.00455577 8.75465 -0.0621097 8.54676 0.0624495C8.33887 0.187009 8.27177 0.456302 8.39633 0.664193L9.49148 2.4896C7.37442 3.58388 5.92137 5.78998 5.92137 8.33336C5.92137 8.5759 6.11786 8.77195 6.35996 8.77195H18.6404C18.8825 8.77195 19.079 8.5759 19.079 8.33336C19.0786 5.79042 17.626 3.58432 15.5089 2.4896ZM6.81522 7.89477C7.03977 4.95491 9.50376 2.6317 12.5002 2.6317C15.4966 2.6317 17.9606 4.95491 18.1852 7.89477H6.81522Z" fill="#E42626"/>
<path d="M15.5602 4.98412H14.9822C14.8225 4.98412 14.6931 5.11351 14.6931 5.27315V5.85121C14.6931 6.01086 14.8225 6.14024 14.9822 6.14024H15.5607C15.7203 6.14024 15.8497 6.01086 15.8497 5.85121V5.27315C15.8497 5.11351 15.7199 4.98412 15.5602 4.98412Z" fill="#E42626"/>
<path d="M10.0178 4.98412H9.4393C9.27965 4.98412 9.15027 5.11351 9.15027 5.27315V5.85121C9.15027 6.01086 9.27965 6.14024 9.4393 6.14024H10.0178C10.1774 6.14024 10.3068 6.01086 10.3068 5.85121V5.27315C10.3068 5.11351 10.1774 4.98412 10.0178 4.98412Z" fill="#E42626"/>
<path d="M18.64 9.2108H6.35953C6.11743 9.2108 5.92094 9.40685 5.92094 9.64939V18.4962C5.92094 19.6641 6.87224 20.6141 8.04108 20.6141H8.55248V23.2483C8.55248 24.214 9.3393 25 10.3068 25C11.2744 25 12.0612 24.214 12.0612 23.2483V20.6141H12.9384V23.2483C12.9384 24.214 13.7252 25 14.6927 25C15.6602 25 16.4471 24.214 16.4471 23.2483V20.6141H16.9585C18.1277 20.6141 19.0786 19.6641 19.0786 18.4962V9.64939C19.0786 9.40685 18.8826 9.2108 18.64 9.2108ZM18.2014 18.4962C18.2014 19.1804 17.644 19.7369 16.9585 19.7369H16.0085C15.7664 19.7369 15.5699 19.933 15.5699 20.1755V23.2483C15.5699 23.7307 15.1765 24.1228 14.6927 24.1228C14.209 24.1228 13.8155 23.7303 13.8155 23.2483V20.1755C13.8155 19.933 13.6191 19.7369 13.377 19.7369H11.6226C11.3805 19.7369 11.184 19.933 11.184 20.1755V23.2483C11.184 23.7307 10.7906 24.1228 10.3068 24.1228C9.82307 24.1228 9.42965 23.7303 9.42965 23.2483V20.1755C9.42965 19.933 9.23317 19.7369 8.99106 19.7369H8.04152C7.35601 19.7369 6.79812 19.1799 6.79812 18.4962V10.088H18.2014V18.4962Z" fill="#E42626"/>
<path d="M21.0522 9.2108C20.2058 9.2108 19.5172 9.90026 19.5172 10.7476V16.8844C19.5172 17.7317 20.2058 18.4212 21.0522 18.4212C21.8987 18.4212 22.5873 17.7317 22.5873 16.8844V10.7476C22.5873 9.90026 21.8987 9.2108 21.0522 9.2108ZM21.7101 16.8844C21.7101 17.2479 21.415 17.544 21.0522 17.544C20.6895 17.544 20.3944 17.2479 20.3944 16.8844V10.7476C20.3944 10.384 20.6895 10.088 21.0522 10.088C21.415 10.088 21.7101 10.384 21.7101 10.7476V16.8844Z" fill="#E42626"/>
<path d="M3.94729 9.2108C3.10082 9.2108 2.41223 9.90026 2.41223 10.7476V16.8844C2.41223 17.7317 3.10082 18.4212 3.94729 18.4212C4.79377 18.4212 5.48235 17.7317 5.48235 16.8844V10.7476C5.48235 9.90026 4.79377 9.2108 3.94729 9.2108ZM4.60518 16.8844C4.60518 17.2479 4.31001 17.544 3.94729 17.544C3.58458 17.544 3.28941 17.2479 3.28941 16.8844V10.7476C3.28941 10.384 3.58458 10.088 3.94729 10.088C4.31001 10.088 4.60518 10.384 4.60518 10.7476V16.8844Z" fill="#E42626"/>
</g>
<defs>
<clipPath id="clip0">
<rect width="25" height="25" fill="white"/>
</clipPath>
</defs>
</svg>
