<svg width="25" height="25" viewBox="0 0 25 25" fill="none" xmlns="http://www.w3.org/2000/svg">
<g clip-path="url(#clip0)">
<path d="M23.2597 17.6377C23.2597 17.5939 23.2597 17.5939 23.2597 17.55V17.1118L23.0406 16.9803C21.0683 15.9284 20.1479 14.4383 20.1479 12.4222C20.1479 10.7129 20.893 9.26656 22.2517 8.30237L22.7776 8.03942L22.427 7.60117C21.5504 6.50548 20.0603 5.01535 17.7374 5.01535C17.2948 5.01535 16.8832 5.12406 16.4748 5.28547C17.436 4.24506 17.9566 2.92449 17.9566 1.42148C17.9566 1.15853 17.9566 0.89554 17.9127 0.588731V0.501051V0.457235L17.8689 0.325739C17.8251 0.238058 17.7813 0.106611 17.6498 0.0627951C17.5183 0.0189793 17.4307 -0.0248854 17.2992 0.0189793C14.9763 0.676412 12.5219 2.51716 12.5219 5.76041C12.5219 5.94739 12.5222 6.13465 12.542 6.34149C12.1599 6.2417 11.8248 6.05502 11.4701 5.84809C10.8565 5.49747 10.1991 5.10303 9.19102 5.10303C4.76441 5.10303 1.69647 9.13521 1.69647 12.7291C1.69647 14.7013 2.31004 18.1199 4.06316 21.2755C5.42184 23.7299 6.9996 25.0009 8.66508 25.0009C9.27865 25.0009 9.89227 24.7818 10.5935 24.5626C11.2948 24.2558 12.0836 23.9929 12.8726 23.9929C13.53 23.9929 14.1874 24.2558 14.8448 24.475C15.5022 24.6941 16.2035 24.9571 16.9047 24.9571C20.3671 24.9571 23.3036 20.6182 23.3036 17.9008C23.3036 17.813 23.2597 17.7254 23.2597 17.6377ZM17.0362 1.02699C17.08 1.2023 17.08 1.3338 17.0362 1.46524C17.0362 4.44555 14.801 5.76037 13.3985 6.2863C13.3547 6.06717 13.3547 5.89186 13.3547 5.76037C13.3546 3.21836 15.1954 1.68437 17.0362 1.02699ZM22.427 17.7254C22.427 17.7692 22.427 17.813 22.427 17.8569C22.427 21.1439 19.0084 24.0366 16.9047 24.0366C16.3349 24.0366 15.7213 23.8175 15.1078 23.5983C14.3627 23.3353 13.6176 23.0724 12.8287 23.0724C11.8645 23.0724 10.988 23.3792 10.2429 23.686C9.67314 23.9051 9.10339 24.1242 8.66508 24.1242C6.99964 24.1242 5.64097 22.3711 4.85209 20.881C3.18665 17.8569 2.57303 14.6136 2.57303 12.729C2.57303 8.74067 6.07927 5.97949 9.19102 5.97949C9.93608 5.97949 10.462 6.2863 11.0756 6.63693C11.6892 6.98755 12.3028 7.33817 13.1794 7.33817C14.3189 7.33817 15.2393 6.89992 16.0282 6.50543C16.6856 6.19862 17.2115 5.93568 17.7813 5.93568C19.4906 5.93568 20.6739 6.85605 21.5067 7.82029C20.1042 8.91598 19.3153 10.5376 19.3153 12.4222C19.3153 14.7013 20.3233 16.4105 22.427 17.5939C22.427 17.6377 22.427 17.6815 22.427 17.7254Z" fill="#E42626"/>
</g>
<defs>
<clipPath id="clip0">
<rect width="25" height="25" fill="white"/>
</clipPath>
</defs>
</svg>
